<svg aria-hidden="true" style="position: absolute; width: 0; height: 0; overflow: hidden;" version="1.1" xmlns="http://www.w3.org/2000/svg" xmlns:xlink="http://www.w3.org/1999/xlink">
<defs>
<symbol id="icon-check-alt" viewBox="0 0 32 32">
<title>check-alt</title>
<path d="M16 0c-8.836 0-16 7.164-16 16s7.164 16 16 16 16-7.164 16-16-7.164-16-16-16zM13.52 23.383l-7.362-7.363 2.828-2.828 4.533 4.535 9.617-9.617 2.828 2.828-12.444 12.445z"></path>
</symbol>
<symbol id="icon-key-stroke" viewBox="0 0 32 32">
<title>key-stroke</title>
<path d="M22 0c-5.523 0-10 4.477-10 10 0 0.625 0.074 1.227 0.184 1.816l-12.184 12.184v8h12v-4h4v-4h4v-4l0.184-0.184c0.589 0.11 1.191 0.184 1.816 0.184 5.523 0 10-4.477 10-10s-4.477-10-10-10zM22 16c-0.313 0-0.656-0.039-1.086-0.117l-2.070-0.383-2.844 2.844v1.656h-4v4h-4v4h-4v-2.344l12.5-12.5-0.383-2.070c-0.080-0.43-0.117-0.774-0.117-1.086 0-3.309 2.691-6 6-6s6 2.691 6 6-2.691 6-6 6zM20 10c0-1.105 0.895-2 2-2s2 0.895 2 2c0 1.105-0.895 2-2 2s-2-0.895-2-2z"></path>
</symbol>
<symbol id="icon-fullscreen" viewBox="0 0 32 32">
<title>fullscreen</title>
<path d="M27.414 24.586l-4.586-4.586-2.828 2.828 4.586 4.586-4.586 4.586h12v-12zM12 0h-12v12l4.586-4.586 4.543 4.539 2.828-2.828-4.543-4.539zM12 22.828l-2.828-2.828-4.586 4.586-4.586-4.586v12h12l-4.586-4.586zM32 0h-12l4.586 4.586-4.543 4.539 2.828 2.828 4.543-4.539 4.586 4.586z"></path>
</symbol>
<symbol id="icon-image" viewBox="0 0 32 32">
<title>image</title>
<path d="M8 24v-8l4-4 4 4 8-8 8 8v8zM4 28v-28l-4 4v28h28l4-4z"></path>
</symbol>
<symbol id="icon-user" viewBox="0 0 24 32">
<title>user</title>
<path d="M12 16c-6.625 0-12 5.375-12 12 0 2.211 1.789 4 4 4h16c2.211 0 4-1.789 4-4 0-6.625-5.375-12-12-12zM6 6c0-3.314 2.686-6 6-6s6 2.686 6 6c0 3.314-2.686 6-6 6s-6-2.686-6-6z"></path>
</symbol>
<symbol id="icon-home" viewBox="0 0 32 32">
<title>home</title>
<path d="M16 0l-16 16h4v16h24v-16h4l-16-16zM24 28h-6v-6h-4v6h-6v-14.344l8-5.656 8 5.656v14.344z"></path>
</symbol>
<symbol id="icon-lock-stroke" viewBox="0 0 24 32">
<title>lock-stroke</title>
<path d="M14.004 0c-5.51 0-9.998 4.484-9.998 10v2h-4.006v14c0 3.305 2.695 6 5.998 6h12.002c3.313 0 6-2.695 6-6v-16c0-5.516-4.484-10-9.996-10zM8.006 10c0-3.312 2.693-6 5.998-6 3.309 0 5.996 2.688 5.996 6v2h-11.994v-2zM18 28h-12.002c-1.102 0-2-0.898-2-2v-10h16.002v10c0 1.102-0.891 2-2 2zM14 22c0 1.102-0.898 2-2 2-1.109 0-2-0.898-2-2 0-1.109 0.891-2 2-2 1.102 0 2 0.891 2 2z"></path>
</symbol>
<symbol id="icon-map-pin-alt" viewBox="0 0 16 32">
<title>map-pin-alt</title>
<path d="M8 0c-4.418 0-8 3.582-8 8s8 24 8 24 8-19.582 8-24-3.582-8-8-8zM8 12c-2.209 0-4-1.791-4-4s1.791-4 4-4 4 1.791 4 4-1.791 4-4 4z"></path>
</symbol>
</defs>
</svg>
